<?xml version="1.0" encoding="UTF-8"?>
<svg id="Laag_1" data-name="Laag 1" xmlns="http://www.w3.org/2000/svg" width="200" height="48.44" xmlns:xlink="http://www.w3.org/1999/xlink" viewBox="0 0 200 48.44">
  <defs>
    <style>
      .cls-1 {
        fill: none;
      }

      .cls-2 {
        fill: url(#Naamloos_verloop_7);
      }

      .cls-3 {
        clip-path: url(#clippath);
      }
    </style>
    <clipPath id="clippath">
      <path class="cls-1" d="M152.8,32.08h-6.03V12.37c0-.27-.22-.49-.49-.49h-9.76c-.27,0-.49.22-.49.49v3.59c0,.27.22.49.49.49h5.28v15.63h-6.03c-.27,0-.49.22-.49.49v3.59c0,.27.22.49.49.49h17.02c.27,0,.49-.22.49-.49v-3.59c0-.27-.22-.49-.49-.49ZM119.4,11.55c-2.76,0-5.17,1.2-6.76,3.04v-2.22c0-.27-.22-.49-.49-.49h-3.99c-.27,0-.49.22-.49.49v23.79c0,.27.22.49.49.49h3.99c.27,0,.49-.22.49-.49v-13.83c0-3.47,2.43-6.2,5.75-6.2,2.96,0,4.81,1.77,5.33,4.08.13.6.21,1.5.21,2.24v13.72c0,.27.22.49.49.49h3.99c.27,0,.49-.22.49-.49v-12.78c0-1.99-.09-2.88-.23-3.9-.67-4.51-4.29-7.93-9.26-7.93ZM24.16,15.84c2.71,0,4.28,1.34,4.7,3.59.05.28.29.48.57.48h4.08c.29,0,.52-.26.48-.55-.63-5.02-4.72-7.97-9.72-7.97-4.7,0-9.24,2.57-9.24,7.68,0,4.22,3.14,6.1,6.72,6.96l3.95.92c2.01.48,3.32,1.34,3.32,2.83,0,2.04-2.09,2.85-4.33,2.85-2.92,0-4.6-1.29-5.02-3.69-.05-.29-.3-.5-.59-.5h-4.05c-.29,0-.52.25-.48.54.65,5.4,5.16,8.14,9.96,8.14,4.69,0,9.66-2.41,9.66-7.88,0-3.59-2.32-5.74-6.77-6.78l-3.83-.89c-1.46-.33-3.42-1.01-3.42-2.88,0-1.8,1.64-2.85,4.02-2.85ZM48.68,24.28c0,13.74-10.55,24.16-24.34,24.16S0,38.01,0,24.28C0,11.45,9.22,1.37,21.88,0c.29-.03.54.19.54.48v3.67c0,.29-.22.54-.51.58C11.97,6.03,4.87,14.14,4.87,24.32c0,11.05,8.36,19.53,19.47,19.53,11.11,0,19.47-8.48,19.47-19.53,0-10.18-7.13-18.3-17.04-19.59-.29-.04-.51-.28-.51-.58V.49c0-.29.25-.51.54-.48,12.66,1.37,21.88,11.44,21.88,24.27ZM155.55,16.45h5.07v19.71c0,.27.22.49.49.49h3.99c.27,0,.49-.22.49-.49v-19.71h7.39c.27,0,.49-.22.49-.49v-3.59c0-.27-.22-.49-.49-.49h-7.39v-3.22c0-2.47,1.59-3.65,3.61-3.65,1.52,0,3.03.58,4.28,1.48.31.22.73,0,.73-.38v-3.62c0-.27-.14-.52-.37-.66-1.45-.89-3.19-1.41-5.17-1.41-4.65,0-8.04,3.09-8.04,8.25v3.22h-5.07c-.27,0-.49.22-.49.49v3.59c0,.27.22.49.49.49ZM62.17,8.47c2.04,0,3.71-1.67,3.71-3.76,0-2.07-1.67-3.71-3.71-3.71s-3.71,1.64-3.71,3.71c0,2.09,1.67,3.76,3.71,3.76ZM143.95,8.47c2.04,0,3.71-1.67,3.71-3.76s-1.67-3.71-3.71-3.71-3.71,1.64-3.71,3.71c0,2.09,1.67,3.76,3.71,3.76ZM71.02,32.08h-6.03V12.37c0-.27-.22-.49-.49-.49h-9.76c-.27,0-.49.22-.49.49v3.59c0,.27.22.49.49.49h5.28v15.63h-6.03c-.27,0-.49.22-.49.49v3.59c0,.27.22.49.49.49h17.02c.27,0,.49-.22.49-.49v-3.59c0-.27-.22-.49-.49-.49ZM185.95,35.65l-1.51,3.8c-.79,2-1.95,2.91-3.31,2.91-1.07,0-2.39-.44-3.52-1.46-.28-.26-.73-.06-.73.32v4.21c.02.27.16.53.39.67,1.21.72,2.51,1.12,4.03,1.12,3.85,0,6.35-2.38,8.25-7.36l10.41-27.32c.12-.32-.11-.66-.45-.66h-4.14c-.33,0-.62.2-.73.51l-6.21,17.07-6.7-17.09c-.12-.3-.4-.49-.72-.49h-4.23c-.35,0-.58.35-.45.67l9.62,23.09ZM98.39,11.88h-3.9c-.27,0-.49.22-.49.49v2.08c-1.13-1.31-2.65-2.25-4.66-2.65-.27-.05-.52.15-.52.43v3.81c0,.27.17.5.43.58,3.09.95,4.87,3.87,4.87,7.52,0,4.52-2.66,7.88-7.01,7.88-3.99,0-7.06-3.36-7.06-7.91,0-3.42,1.76-6.36,4.56-7.43.23-.09.39-.32.39-.57v-3.87c0-.28-.26-.49-.53-.43-5.61,1.28-9.45,6.17-9.45,12.41,0,7.17,4.76,12.37,11.46,12.37,3.35,0,5.79-1.3,7.44-3.33v3.21c0,1.09-.13,1.95-.35,2.7-.67,2.27-2.67,3.78-5.67,3.78-2.98,0-5.1-1.41-5.69-4.01-.06-.24-.28-.41-.52-.41h-3.99c-.29,0-.52.26-.48.55.84,5.76,5.31,8.48,10.6,8.48,5.08,0,9.42-2.56,10.64-7.34.29-1.12.44-2.96.44-4.29V12.37c0-.27-.22-.49-.49-.49Z"/>
    </clipPath>
    <linearGradient id="Naamloos_verloop_7" data-name="Naamloos verloop 7" x1="-48.59" y1="128.26" x2="186.52" y2="-36.37" gradientUnits="userSpaceOnUse">
      <stop offset=".5" stop-color="#00e487"/>
      <stop offset="1" stop-color="#1ecbd0"/>
    </linearGradient>
  </defs>
  <g class="cls-3">
    <rect class="cls-2" width="200" height="48.44"/>
  </g>
</svg>